PathFileType	4	(X/Y/Z)	Patient4_TMGait_0pt5_02_left_42.trc.trc
DataRate	CameraRate	NumFrames	NumMarkers	Units	OrigDataRate	OrigDataStartFrame	OrigNumFrames
76.923076923077	76.923076923077	5	33	mm	76.923076923077	124	       141
Frame#	Time	Sacral			L.Shoulder			Chest			R.Shoulder			Neck			R.ASIS			L.ASIS			R.Thigh.Superior			R.Thigh.Lateral			R.Thigh.Inferior			R.Patella			L.Thigh.Superior			L.Thigh.Lateral			L.Thigh.Inferior			L.Patella			L.Shank.Superior			L.Shank.Lateral			L.Shank.Inferior			R.Shank.Superior			R.Shank.Lateral			R.Shank.Inferior			R.Heel			R.Midfoot.Superior			R.Midfoot.Lateral			R.Toe			L.Heel			L.Midfoot.Lateral			L.Midfoot.Superior			L.Toe			L.Elbow			L.Wrist			R.Elbow			R.Wrist			
		X1	Y1	Z1	X2	Y2	Z2	X3	Y3	Z3	X4	Y4	Z4	X5	Y5	Z5	X6	Y6	Z6	X7	Y7	Z7	X8	Y8	Z8	X9	Y9	Z9	X10	Y10	Z10	X11	Y11	Z11	X12	Y12	Z12	X13	Y13	Z13	X14	Y14	Z14	X15	Y15	Z15	X16	Y16	Z16	X17	Y17	Z17	X18	Y18	Z18	X19	Y19	Z19	X20	Y20	Z20	X21	Y21	Z21	X22	Y22	Z22	X23	Y23	Z23	X24	Y24	Z24	X25	Y25	Z25	X26	Y26	Z26	X27	Y27	Z27	X28	Y28	Z28	X29	Y29	Z29	X30	Y30	Z30	X31	Y31	Z31	X32	Y32	Z32	X33	Y33	Z33	

124	55.789000000000	672.027899575595	1007.796057281259	515.465984055931	843.461528691293	1420.794693493087	308.450746765002	964.739261087060	1347.199896247595	453.793835475981	912.604371617349	1429.351646961999	636.403210375997	867.389990610061	1483.828661460547	456.202052095407	902.935682082953	927.865710616931	608.159043149104	865.251772374098	948.659686881440	335.299862778000	906.438300358182	717.068473738619	577.771077336902	812.282092800512	620.758036335611	644.603654278684	870.113918210340	557.202046493363	559.028441498016	853.119333111948	466.970373571858	564.126051515029	938.186348135640	764.635694722333	370.091400769477	882.019395071484	638.666600197578	297.691116230222	980.664095196897	576.744716377362	362.082864888358	1002.889465529565	510.095368577603	361.287036177042	987.009610365928	438.135084541828	349.476024871595	920.487892840803	308.948404415438	298.886913672363	1004.210088036447	209.659264815633	357.676142803386	808.707725092242	385.229957593704	573.350767907022	723.529945278960	296.840447297891	640.910962578404	738.662146544321	196.735677019835	576.068741510134	578.327062402787	45.313045822216	555.663092401476	750.918515435172	95.954113879692	585.851969403043	663.126374738518	36.981573693765	628.311282570067	871.243318054230	40.027056941523	613.159108327756	913.010403841203	37.845343320390	395.468598494703	988.915305576596	39.038815752085	317.019543796324	1064.204326155227	109.224823166327	341.076136620431	1195.967862749952	70.175942327975	318.489159771088	700.720687630629	1089.899810322097	222.732391786364	679.498143456167	830.108362816226	227.244769889781	1050.628596609139	1120.324642435232	739.260742165755	1243.213782917704	1213.324257267083	611.096460413928	
125	55.802000000000	673.774034050459	1006.403071374546	512.927931054753	843.912948105350	1419.643726513958	305.692612188964	965.268407012778	1346.749433502476	451.378561108060	912.251340458988	1428.749157991830	633.886379912490	867.372092248354	1482.990535057173	453.401263209273	904.672562715248	927.076853621750	606.149199677322	867.518276916270	947.411513063259	333.331802417999	907.419043856581	715.783033355498	576.208942211078	812.300484614965	619.850065758965	642.895180746842	869.941080490538	555.794286481471	557.640327672342	852.396968686012	464.992861238876	562.818426611778	940.530553240304	763.252242442319	367.379121618176	881.830159956014	636.886419512724	296.876006496889	981.596162518172	575.328429606629	359.818346458362	1002.161477936308	507.873040769283	360.154190787812	986.101260708502	435.642134252804	348.747883985450	917.966894435162	307.049281493391	298.858804503609	1000.476723764300	207.084401506336	357.981730653363	806.523471470488	383.959979931606	572.153703130993	720.096125893345	296.944446957809	640.104298734295	733.811038546159	196.425593894693	575.597224544789	571.766711123624	46.233895583880	555.902015628110	744.700046564782	96.018758110098	585.900587362793	656.659314181467	37.349560870207	628.413739937177	864.790397273832	39.753768253093	613.270017998579	906.196426908923	37.833027302892	396.543913655818	981.783187269024	37.732211770737	317.592858635838	1058.935895761993	105.774005211521	341.980140549522	1189.881117025036	63.504571706933	318.535901865408	704.013986350382	1087.482529504750	219.480575545232	685.458967713948	827.439571431642	223.818000245460	1049.006419201517	1118.189013719688	736.336130854696	1241.694355148288	1209.046726537917	606.439456247403	
126	55.815000000000	675.479084719757	1005.275181840884	510.330886581508	844.423421912449	1418.650342913629	302.795341501583	965.840500527450	1346.500354498133	448.863836383536	911.927732140049	1428.427698872902	631.240880306234	867.432902015375	1482.367862429536	450.437468828793	906.326498360826	926.513972498771	604.044023292208	869.791924622829	946.432018997814	331.303079729949	908.609525188488	714.723938051572	574.614123423923	812.677485926588	619.055133363740	641.092232819200	870.302720972720	554.565324400997	556.157073559024	852.403691242098	463.014174498630	561.551793042217	942.922705478686	762.228387698935	364.752025441400	882.085240225724	635.634957722112	295.824352311748	982.715704155271	574.288211165105	357.588640535009	1001.624822249165	506.045313986680	358.991658639804	985.362954197682	433.520107208700	347.938382628930	915.720404815071	305.602435735988	298.341023720533	996.671138250600	204.850160558247	358.081316938141	804.862175111124	382.799915512146	570.961435754506	717.016387043608	297.372995041108	639.278080392896	729.279589382166	196.389886529035	575.176627614170	565.280947992595	47.772635104653	556.167436738084	738.714235095864	96.171643899747	586.006621941338	650.244050793580	38.053790523921	628.528520230194	858.348632863361	39.425127611875	613.370817144790	899.189700577586	37.857703603970	397.125003759946	974.610992616513	36.692394675762	317.826649626679	1053.353643582012	102.861494064951	342.694175423068	1183.629337300790	57.812584695362	318.671895200760	707.856060612529	1084.981642855343	216.061595493355	692.341900179057	824.686251722462	220.114886173553	1046.662651689545	1115.962240947609	733.567742918171	1240.210374493340	1203.337885920811	602.081530603759	
127	55.828000000000	677.088265433878	1004.512166592121	507.694394900447	845.009445808975	1417.883798900042	299.790507671111	966.460419249719	1346.491930784756	446.268421545884	911.690200588612	1428.459548170720	628.475247617490	867.602863976452	1482.020220798680	447.335958392650	907.816753310791	926.240655448130	601.853960091784	871.999838011244	945.800695608779	329.213443753155	910.037249579696	713.988578831940	572.955905105171	813.554456939531	618.404268326705	639.192082994175	871.391642322312	553.586570872267	554.568122787835	853.371017056073	461.076725385139	560.363689227020	945.279316312129	761.630214129941	362.278479003044	882.754288280774	634.971024028188	294.539663669244	983.888072863221	573.634267037346	355.454888063412	1001.205466440511	504.661458205370	357.803681777101	984.710691227420	431.829742705464	347.051331096016	913.697362696500	304.640825470180	297.389701206590	992.821724763860	203.041234408138	357.993022396943	803.939093836229	381.799154698728	569.793936860576	714.462174749691	298.225066978518	638.417868018270	725.218337024642	196.722708952119	574.807684016114	558.957237503540	50.152710535947	556.421959432574	733.060166826707	96.462627751403	586.161742997947	643.927969325975	39.246223034439	628.629504815079	851.923474417030	39.033787051577	613.448249262739	892.210257655990	37.898001447979	397.301296429672	967.585031308491	35.933738757894	317.788998132716	1047.566165591248	100.605137957840	343.200392922994	1177.343408086100	53.371726016118	318.850796140584	712.238126760818	1082.500592578898	212.508307835946	700.117527799983	821.968214623232	216.176119809637	1043.588688634862	1113.752400244061	730.934675578344	1238.719580552024	1196.191588440928	598.028396076796	
128	55.841000000000	678.556406680003	1004.182295451928	505.022174021846	845.686563551906	1417.397477873437	296.712542498487	967.126222664948	1346.746171812039	443.617552396178	911.576483743591	1428.887928477201	625.603994030414	867.896690834128	1481.985523053175	444.130023609797	909.072908703508	926.303077855179	599.598453230732	874.088914528371	945.563174712049	327.063836303172	911.742150165695	713.666345409625	571.210552528278	815.079968626458	617.921396298584	637.199856633044	873.409827119812	552.922373542852	552.879606698053	855.523926411374	459.229672411140	559.294387158298	947.519176721779	761.467055523019	359.995897611341	883.723374427430	634.872169536950	293.061205442604	984.947304102824	573.319429453715	353.466148951650	1000.783708728093	503.701286817184	356.610956270422	984.011070146283	430.569165897341	346.110360583691	911.766003264888	304.137916556139	296.119115154937	988.895833591979	201.677454918076	357.757385337989	803.979202897955	381.006336061135	568.670168555820	712.625174468832	299.592304276051	637.504021806608	721.791974592452	197.519357159057	574.480846245363	552.914020456767	53.604365324049	556.611757726869	727.845910235527	96.954380706395	586.344477426673	637.777961918302	41.098100178023	628.680067916005	845.525265386576	38.575238961681	613.488148413220	885.373939497483	37.937124441545	397.181968045520	960.782944083300	35.437107997973	317.559471389977	1041.632682615523	99.021679944482	343.506676378681	1171.081264351488	50.248100641176	319.028311009767	717.148293158953	1080.136093839936	208.846120837995	708.771770817644	819.401957444620	212.046087396497	1039.775540473036	1111.659784962219	728.408261466721	1237.131303523605	1187.608297923992	594.296633704890	
